<svg width="391" height="497" viewBox="0 0 391 497" fill="none" xmlns="http://www.w3.org/2000/svg">
<rect width="391" height="497" fill="white"/>
<path d="M196.201 242.704C180.186 242.512 166.917 249.817 167.376 211.712C167.835 173.607 184.787 120.196 200.802 120.389C216.817 120.582 225.83 174.305 225.372 212.41C224.913 250.515 212.216 242.897 196.201 242.704Z" fill="url(#paint0_linear_12_37)"/>
<path d="M196.201 242.704C180.186 242.512 166.917 249.817 167.376 211.712C167.835 173.607 184.787 120.196 200.802 120.389C216.817 120.582 225.83 174.305 225.372 212.41C224.913 250.515 212.216 242.897 196.201 242.704Z" fill="url(#paint1_linear_12_37)"/>
<path d="M210.285 282.837C216.231 267.966 214.194 252.957 249.578 267.106C284.961 281.254 328.685 316.302 322.738 331.174C316.792 346.045 263.427 335.108 228.043 320.96C192.66 306.811 204.338 297.709 210.285 282.837Z" fill="url(#paint2_linear_12_37)"/>
<path d="M210.285 282.837C216.231 267.966 214.194 252.957 249.578 267.106C284.961 281.254 328.685 316.302 322.738 331.174C316.792 346.045 263.427 335.108 228.043 320.96C192.66 306.811 204.338 297.709 210.285 282.837Z" fill="url(#paint3_linear_12_37)"/>
<path d="M205.996 250.949C194.708 239.586 180.124 235.496 207.159 208.639C234.195 181.783 283.723 155.57 295.01 166.933C306.298 178.296 275.071 222.931 248.035 249.787C221 276.644 217.283 262.311 205.996 250.949Z" fill="url(#paint4_linear_12_37)"/>
<path d="M205.996 250.949C194.708 239.586 180.124 235.496 207.159 208.639C234.195 181.783 283.723 155.57 295.01 166.933C306.298 178.296 275.071 222.931 248.035 249.787C221 276.644 217.283 262.311 205.996 250.949Z" fill="url(#paint5_linear_12_37)"/>
<path d="M195.578 285.246C211.59 285.61 224.936 278.447 224.07 316.545C223.204 354.643 205.68 407.869 189.668 407.505C173.656 407.141 165.219 353.325 166.085 315.227C166.951 277.129 179.566 284.882 195.578 285.246Z" fill="url(#paint6_linear_12_37)"/>
<path d="M195.578 285.246C211.59 285.61 224.936 278.447 224.07 316.545C223.204 354.643 205.68 407.869 189.668 407.505C173.656 407.141 165.219 353.325 166.085 315.227C166.951 277.129 179.566 284.882 195.578 285.246Z" fill="url(#paint7_linear_12_37)"/>
<path d="M188.357 284.864C200.887 294.84 215.847 297.21 192.112 327.023C168.377 356.836 122.226 388.62 109.696 378.645C97.1658 368.669 123.001 320.711 146.736 290.898C170.472 261.084 175.827 274.889 188.357 284.864Z" fill="url(#paint8_linear_12_37)"/>
<path d="M188.357 284.864C200.887 294.84 215.847 297.21 192.112 327.023C168.377 356.836 122.226 388.62 109.696 378.645C97.1658 368.669 123.001 320.711 146.736 290.898C170.472 261.084 175.827 274.889 188.357 284.864Z" fill="url(#paint9_linear_12_37)"/>
<path d="M178.212 270.529C183.249 285.732 194.479 295.897 158.304 307.88C122.13 319.863 66.11 321.24 61.0736 306.036C56.0372 290.832 103.891 264.805 140.066 252.822C176.24 240.839 173.176 255.325 178.212 270.529Z" fill="url(#paint10_linear_12_37)"/>
<path d="M178.212 270.529C183.249 285.732 194.479 295.897 158.304 307.88C122.13 319.863 66.11 321.24 61.0736 306.036C56.0372 290.832 103.891 264.805 140.066 252.822C176.24 240.839 173.176 255.325 178.212 270.529Z" fill="url(#paint11_linear_12_37)"/>
<path d="M182.695 254.418C169.642 263.698 163.225 277.418 141.144 246.36C119.064 215.301 101.292 162.157 114.346 152.877C127.399 143.597 166.335 181.694 188.416 212.753C210.496 243.812 195.749 245.137 182.695 254.418Z" fill="url(#paint12_linear_12_37)"/>
<path d="M182.695 254.418C169.642 263.698 163.225 277.418 141.144 246.36C119.064 215.301 101.292 162.157 114.346 152.877C127.399 143.597 166.335 181.694 188.416 212.753C210.496 243.812 195.749 245.137 182.695 254.418Z" fill="url(#paint13_linear_12_37)"/>
<path d="M209.761 283.912C224.513 277.676 233.747 265.67 248.584 300.77C263.422 335.871 269.273 391.601 254.521 397.837C239.769 404.073 209.999 358.453 195.161 323.352C180.324 288.252 195.009 290.148 209.761 283.912Z" fill="url(#paint14_linear_12_37)"/>
<path d="M209.761 283.912C224.513 277.676 233.747 265.67 248.584 300.77C263.422 335.871 269.273 391.601 254.521 397.837C239.769 404.073 209.999 358.453 195.161 323.352C180.324 288.252 195.009 290.148 209.761 283.912Z" fill="url(#paint15_linear_12_37)"/>
<path d="M175.782 255.702C172.302 271.336 176.725 285.823 139.527 277.543C102.33 269.263 53.5436 241.695 57.0236 226.062C60.5036 210.428 114.932 212.649 152.13 220.929C189.327 229.209 179.262 240.069 175.782 255.702Z" fill="url(#paint16_linear_12_37)"/>
<path d="M175.782 255.702C172.302 271.336 176.725 285.823 139.527 277.543C102.33 269.263 53.5436 241.695 57.0236 226.062C60.5036 210.428 114.932 212.649 152.13 220.929C189.327 229.209 179.262 240.069 175.782 255.702Z" fill="url(#paint17_linear_12_37)"/>
<path d="M215.184 274.471C210.84 259.055 200.082 248.393 236.761 238.059C273.441 227.725 329.466 228.884 333.809 244.3C338.152 259.717 289.169 283.552 252.49 293.885C215.81 304.219 219.527 289.887 215.184 274.471Z" fill="url(#paint18_linear_12_37)"/>
<path d="M215.184 274.471C210.84 259.055 200.082 248.393 236.761 238.059C273.441 227.725 329.466 228.884 333.809 244.3C338.152 259.717 289.169 283.552 252.49 293.885C215.81 304.219 219.527 289.887 215.184 274.471Z" fill="url(#paint19_linear_12_37)"/>
<defs>
<linearGradient id="paint0_linear_12_37" x1="189.869" y1="193.652" x2="191.494" y2="244.247" gradientUnits="userSpaceOnUse">
<stop offset="0.168269" stop-color="#FF0099"/>
<stop offset="1" stop-color="white" stop-opacity="0.06"/>
</linearGradient>
<linearGradient id="paint1_linear_12_37" x1="189.869" y1="193.652" x2="191.494" y2="244.247" gradientUnits="userSpaceOnUse">
<stop offset="0.168269" stop-color="#FF0099"/>
<stop offset="1" stop-color="white" stop-opacity="0.06"/>
</linearGradient>
<linearGradient id="paint2_linear_12_37" x1="258.327" y1="294.593" x2="210.541" y2="277.89" gradientUnits="userSpaceOnUse">
<stop stop-color="#FF0099"/>
<stop offset="1" stop-color="white" stop-opacity="0.06"/>
</linearGradient>
<linearGradient id="paint3_linear_12_37" x1="258.327" y1="294.593" x2="210.541" y2="277.89" gradientUnits="userSpaceOnUse">
<stop stop-color="#FF0099"/>
<stop offset="1" stop-color="white" stop-opacity="0.06"/>
</linearGradient>
<linearGradient id="paint4_linear_12_37" x1="235.861" y1="211.524" x2="201.557" y2="248.749" gradientUnits="userSpaceOnUse">
<stop offset="0.168269" stop-color="#FF0099"/>
<stop offset="1" stop-color="white" stop-opacity="0.06"/>
</linearGradient>
<linearGradient id="paint5_linear_12_37" x1="235.861" y1="211.524" x2="201.557" y2="248.749" gradientUnits="userSpaceOnUse">
<stop offset="0.168269" stop-color="#FF0099"/>
<stop offset="1" stop-color="white" stop-opacity="0.06"/>
</linearGradient>
<linearGradient id="paint6_linear_12_37" x1="201.385" y1="334.364" x2="200.301" y2="283.754" gradientUnits="userSpaceOnUse">
<stop stop-color="#FF0099"/>
<stop offset="1" stop-color="white" stop-opacity="0.06"/>
</linearGradient>
<linearGradient id="paint7_linear_12_37" x1="201.385" y1="334.364" x2="200.301" y2="283.754" gradientUnits="userSpaceOnUse">
<stop stop-color="#FF0099"/>
<stop offset="1" stop-color="white" stop-opacity="0.06"/>
</linearGradient>
<linearGradient id="paint8_linear_12_37" x1="163.27" y1="327.489" x2="193.021" y2="286.534" gradientUnits="userSpaceOnUse">
<stop stop-color="#FF0099"/>
<stop offset="1" stop-color="white" stop-opacity="0.06"/>
</linearGradient>
<linearGradient id="paint9_linear_12_37" x1="163.27" y1="327.489" x2="193.021" y2="286.534" gradientUnits="userSpaceOnUse">
<stop stop-color="#FF0099"/>
<stop offset="1" stop-color="white" stop-opacity="0.06"/>
</linearGradient>
<linearGradient id="paint10_linear_12_37" x1="133.9" y1="292.499" x2="181.204" y2="274.476" gradientUnits="userSpaceOnUse">
<stop stop-color="#FF0099"/>
<stop offset="1" stop-color="white" stop-opacity="0.06"/>
</linearGradient>
<linearGradient id="paint11_linear_12_37" x1="133.9" y1="292.499" x2="181.204" y2="274.476" gradientUnits="userSpaceOnUse">
<stop stop-color="#FF0099"/>
<stop offset="1" stop-color="white" stop-opacity="0.06"/>
</linearGradient>
<linearGradient id="paint12_linear_12_37" x1="148.678" y1="218.514" x2="179.801" y2="258.437" gradientUnits="userSpaceOnUse">
<stop stop-color="#FF0099"/>
<stop offset="1" stop-color="white" stop-opacity="0.06"/>
</linearGradient>
<linearGradient id="paint13_linear_12_37" x1="148.678" y1="218.514" x2="179.801" y2="258.437" gradientUnits="userSpaceOnUse">
<stop stop-color="#FF0099"/>
<stop offset="1" stop-color="white" stop-opacity="0.06"/>
</linearGradient>
<linearGradient id="paint14_linear_12_37" x1="235.205" y1="326.326" x2="213.457" y2="280.614" gradientUnits="userSpaceOnUse">
<stop stop-color="#FF0099"/>
<stop offset="1" stop-color="white" stop-opacity="0.06"/>
</linearGradient>
<linearGradient id="paint15_linear_12_37" x1="235.205" y1="326.326" x2="213.457" y2="280.614" gradientUnits="userSpaceOnUse">
<stop stop-color="#FF0099"/>
<stop offset="1" stop-color="white" stop-opacity="0.06"/>
</linearGradient>
<linearGradient id="paint16_linear_12_37" x1="126.476" y1="251.818" x2="176.325" y2="260.626" gradientUnits="userSpaceOnUse">
<stop stop-color="#FF0099"/>
<stop offset="1" stop-color="white" stop-opacity="0.06"/>
</linearGradient>
<linearGradient id="paint17_linear_12_37" x1="126.476" y1="251.818" x2="176.325" y2="260.626" gradientUnits="userSpaceOnUse">
<stop stop-color="#FF0099"/>
<stop offset="1" stop-color="white" stop-opacity="0.06"/>
</linearGradient>
<linearGradient id="paint18_linear_12_37" x1="260.444" y1="254.528" x2="212.373" y2="270.392" gradientUnits="userSpaceOnUse">
<stop offset="0.168269" stop-color="#FF0099"/>
<stop offset="1" stop-color="white" stop-opacity="0.06"/>
</linearGradient>
<linearGradient id="paint19_linear_12_37" x1="260.444" y1="254.528" x2="212.373" y2="270.392" gradientUnits="userSpaceOnUse">
<stop offset="0.168269" stop-color="#FF0099"/>
<stop offset="1" stop-color="white" stop-opacity="0.06"/>
</linearGradient>
</defs>
</svg>
